Coordinates
version=1
nRows=54
nColumns=12
inDegrees=yes

Units are S.I. units (second, meters, Newtons, ...)
Angles are in degrees

endheader
time	SC_y	SC_z	SC_x	AC_y	AC_z	AC_x	GH_y	GH_z	GH_yy	EL_x	PS_y
       0.0              -41.29           4.74          83.73           47.1         0.3721          -1.27          142.0          51.17          156.4          120.8          33.71
   0.02676              -41.29          4.739          83.71           47.1         0.3731         -1.272          142.0          51.17          156.4          120.8          33.72
   0.05352              -41.28          4.737           83.7           47.1          0.374         -1.273          142.0          51.18          156.3          120.8          33.73
   0.08028              -41.28          4.736          83.69           47.1         0.3751         -1.274          141.9          51.18          156.3          120.8          33.74
     0.107              -41.27          4.734          83.67          47.11         0.3762         -1.276          141.9          51.18          156.3          120.7          33.75
    0.1338              -41.27          4.732          83.66          47.11         0.3774         -1.277          141.8          51.19          156.3          120.7          33.76
    0.1606              -41.26           4.73          83.64          47.11         0.3786         -1.279          141.8          51.19          156.3          120.7          33.77
    0.1873              -41.26          4.728          83.62          47.11           0.38         -1.281          141.8          51.19          156.3          120.7          33.78
    0.2141              -41.25          4.726          83.61          47.11         0.3814         -1.282          141.7           51.2          156.3          120.7          33.79
    0.2408              -41.25          4.724          83.59          47.11         0.3829         -1.284          141.6           51.2          156.3          120.7          33.81
    0.2676              -41.24          4.721          83.56          47.11         0.3846         -1.287          141.6          51.21          156.3          120.6          33.82
    0.2944              -41.23          4.718          83.54          47.12         0.3864         -1.289          141.5          51.21          156.3          120.6          33.84
    0.3211              -41.23          4.715          83.51          47.12         0.3883         -1.292          141.5          51.22          156.3          120.6          33.85
    0.3479              -41.22          4.712          83.49          47.12         0.3904         -1.294          141.4          51.22          156.3          120.6          33.87
    0.3746              -41.21          4.709          83.46          47.12         0.3926         -1.297          141.3          51.23          156.2          120.5          33.89
    0.4014               -41.2          4.705          83.43          47.13         0.3951           -1.3          141.2          51.23          156.2          120.5          33.91
    0.4282              -41.19          4.701          83.39          47.13         0.3977         -1.304          141.1          51.24          156.2          120.5          33.93
    0.4549              -41.18          4.696          83.35          47.13         0.4006         -1.308          141.0          51.25          156.2          120.4          33.96
    0.4817              -41.17          4.691          83.31          47.14         0.4038         -1.312          140.9          51.26          156.2          120.4          33.98
    0.5085              -41.15          4.686          83.27          47.14         0.4072         -1.316          140.8          51.27          156.2          120.4          34.01
    0.5352              -41.14           4.68          83.22          47.14          0.411         -1.321          140.6          51.28          156.1          120.3          34.05
     0.562              -41.12          4.674          83.16          47.15         0.4152         -1.327          140.5          51.29          156.1          120.3          34.08
    0.5887               -41.1          4.667           83.1          47.15         0.4198         -1.333          140.3           51.3          156.1          120.2          34.12
    0.6155              -41.08          4.659          83.03          47.16         0.4249          -1.34          140.1          51.32          156.1          120.1          34.17
    0.6423              -41.06           4.65          82.96          47.17         0.4306         -1.347          139.9          51.33          156.0          120.1          34.21
     0.669              -41.03           4.64          82.88          47.17         0.4369         -1.355          139.7          51.35          156.0          120.0          34.27
    0.6958              -41.01          4.629          82.78          47.18          0.444         -1.365          139.5          51.37          155.9          119.9          34.33
    0.7225              -40.97          4.617          82.68          47.19          0.452         -1.375          139.2          51.39          155.9          119.8           34.4
    0.7493              -40.94          4.603          82.56           47.2          0.461         -1.387          138.9          51.42          155.8          119.7          34.48
    0.7761               -40.9          4.587          82.43          47.21         0.4712           -1.4          138.5          51.44          155.8          119.6          34.56
    0.8028              -40.85          4.569          82.27          47.22         0.4829         -1.416          138.1          51.48          155.7          119.4          34.66
    0.8296               -40.8          4.548           82.1          47.24         0.4963         -1.433          137.6          51.51          155.6          119.3          34.78
    0.8563              -40.74          4.525          81.89          47.26         0.5118         -1.454          137.0          51.56          155.6          119.1          34.91
    0.8831              -40.67          4.497          81.66          47.28         0.5298         -1.477          136.4          51.61          155.5          118.9          35.07
    0.9099              -40.58          4.464          81.38           47.3         0.5508         -1.505          135.7          51.66          155.3          118.6          35.25
    0.9366              -40.48          4.426          81.06          47.33         0.5756         -1.538          134.8          51.73          155.2          118.3          35.46
    0.9634              -40.37           4.38          80.67          47.36         0.6051         -1.576          133.7          51.81          155.0          118.0          35.71
    0.9901              -40.23          4.326          80.21           47.4         0.6405         -1.623          132.5          51.91          154.8          117.5          36.02
     1.017              -40.06           4.26          79.64          47.45         0.6832         -1.679          130.9          52.03          154.6          117.0          36.38
     1.044              -39.85          4.179          78.96          47.51         0.7355         -1.747          129.1          52.17          154.3          116.4          36.83
      1.07               -39.6           4.08          78.11          47.58         0.7999         -1.832          126.8          52.35          153.9          115.6          37.39
     1.097              -39.28          3.955          77.06          47.67         0.8803         -1.938          123.9          52.57          153.4          114.6          38.08
     1.124              -38.88          3.799          75.73          47.78         0.9816         -2.071          120.3          52.85          152.9          113.4          38.94
     1.151              -38.37            3.6          74.04          47.92           1.11          -2.24          115.7          53.21          152.1          111.8          40.05
     1.177              -37.71          3.346          71.88          48.11          1.275         -2.456          109.8          53.66          151.2          109.8          41.46
     1.204              -36.88          3.019           69.1          48.34          1.487         -2.734          102.3          54.24          150.0          107.3          43.28
     1.231              -35.81          2.602          65.56          48.65          1.757         -3.088          92.65          54.99          148.4          104.0           45.6
     1.258              -34.46          2.077           61.1          49.03          2.096         -3.534          80.54          55.92          146.4           99.9          48.51
     1.285              -32.82          1.438          55.67          49.49           2.51         -4.078          65.78          57.06          144.1          94.88          52.07
     1.311              -30.92         0.6972          49.37          50.02           2.99         -4.707          48.67          58.39          141.3          89.07          56.19
     1.338              -28.87        -0.1051          42.56           50.6          3.509         -5.389          30.15          59.82          138.3          82.78          60.65
     1.365              -26.81        -0.9073          35.74          51.18          4.029         -6.072          11.62          61.25          135.3          76.48           65.1
     1.392              -24.91         -1.648          29.44          51.72          4.509         -6.701          -5.49          62.57          132.6          70.67          69.22
     1.418              -23.27         -2.287          24.01          52.18          4.923         -7.245         -20.25          63.71          130.2          65.66          72.78
